<svg width="28" height="28" viewBox="0 0 28 28" fill="none" xmlns="http://www.w3.org/2000/svg">
<path d="M8.98047 2.57227C9.51432 2.57227 10.0221 2.7513 10.5039 3.10938C10.9857 3.46094 11.4154 3.92318 11.793 4.49609C12.1771 5.0625 12.4766 5.67773 12.6914 6.3418C12.9128 7.00586 13.0234 7.65039 13.0234 8.27539C13.0234 8.67253 12.9746 9.17708 12.877 9.78906C12.7858 10.3945 12.6426 11.0423 12.4473 11.7324C12.252 12.416 11.998 13.0703 11.6855 13.6953H6.28516C5.97266 13.0703 5.71875 12.416 5.52344 11.7324C5.32812 11.0423 5.18164 10.3945 5.08398 9.78906C4.99284 9.17708 4.94727 8.67253 4.94727 8.27539C4.94727 7.65039 5.05469 7.00586 5.26953 6.3418C5.49089 5.67773 5.79036 5.0625 6.16797 4.49609C6.54557 3.92318 6.97526 3.46094 7.45703 3.10938C7.94531 2.7513 8.45312 2.57227 8.98047 2.57227ZM8.99023 19.4375C8.22852 19.4375 7.64583 19.0957 7.24219 18.4121C6.84505 17.7285 6.64648 16.8496 6.64648 15.7754C6.64648 15.6712 6.64974 15.5508 6.65625 15.4141C6.66927 15.2773 6.68555 15.1504 6.70508 15.0332H11.2754C11.2949 15.1504 11.3079 15.2773 11.3145 15.4141C11.3275 15.5508 11.334 15.6712 11.334 15.7754C11.334 16.4915 11.2428 17.1263 11.0605 17.6797C10.8848 18.2266 10.6211 18.6562 10.2695 18.9688C9.92448 19.2812 9.49805 19.4375 8.99023 19.4375ZM20.8457 8.98828C21.347 9.17057 21.7637 9.51237 22.0957 10.0137C22.4277 10.5085 22.6719 11.0879 22.8281 11.752C22.9909 12.416 23.0625 13.0996 23.043 13.8027C23.0234 14.4993 22.9062 15.1374 22.6914 15.7168C22.5547 16.1009 22.3366 16.5632 22.0371 17.1035C21.7441 17.6374 21.3861 18.194 20.9629 18.7734C20.5462 19.3464 20.084 19.877 19.5762 20.3652L14.498 18.5195C14.4264 17.8229 14.4134 17.1198 14.459 16.4102C14.5111 15.694 14.5957 15.0332 14.7129 14.4277C14.8366 13.8223 14.9668 13.334 15.1035 12.9629C15.3184 12.377 15.6406 11.8105 16.0703 11.2637C16.5065 10.7103 16.998 10.2318 17.5449 9.82812C18.0983 9.42448 18.6615 9.13802 19.2344 8.96875C19.8138 8.79948 20.3509 8.80599 20.8457 8.98828ZM15.084 24.8379C14.3678 24.571 13.9382 24.0469 13.7949 23.2656C13.6582 22.4909 13.7721 21.599 14.1367 20.5898C14.1693 20.4922 14.2148 20.3815 14.2734 20.2578C14.332 20.1276 14.3906 20.0104 14.4492 19.9062L18.7461 21.4785C18.7201 21.5957 18.6875 21.7194 18.6484 21.8496C18.6159 21.9863 18.5801 22.1035 18.541 22.2012C18.1764 23.2038 17.6882 23.959 17.0762 24.4668C16.4642 24.9746 15.8001 25.0983 15.084 24.8379Z" fill="#1C1C1C"/>
</svg>
