<svg width="28" height="28" viewBox="0 0 28 28" fill="none" xmlns="http://www.w3.org/2000/svg">
<path d="M25.9434 11.293V16.625C25.9434 17.4909 25.722 18.1452 25.2793 18.5879C24.8366 19.0306 24.1758 19.252 23.2969 19.252H4.71289C3.84049 19.252 3.17969 19.0306 2.73047 18.5879C2.28125 18.1452 2.05664 17.4909 2.05664 16.625V11.293C2.05664 10.4206 2.27799 9.76628 2.7207 9.33008C3.16992 8.88737 3.83073 8.66602 4.70312 8.66602H23.2969C24.1758 8.66602 24.8366 8.88737 25.2793 9.33008C25.722 9.77279 25.9434 10.4271 25.9434 11.293ZM4.95703 10.2773H4.16602V14.8379C4.16602 14.9486 4.20508 15.043 4.2832 15.1211C4.36133 15.1927 4.45573 15.2285 4.56641 15.2285C4.68359 15.2285 4.77799 15.1895 4.84961 15.1113C4.92122 15.0332 4.95703 14.9388 4.95703 14.8281V10.2773ZM6.85156 10.2773H6.06055V13.1191C6.06055 13.2363 6.09961 13.3307 6.17773 13.4023C6.25586 13.474 6.34701 13.5098 6.45117 13.5098C6.57487 13.5098 6.67253 13.474 6.74414 13.4023C6.81576 13.3242 6.85156 13.2266 6.85156 13.1094V10.2773ZM8.74609 10.2773H7.95508V13.1191C7.95508 13.2363 7.99089 13.3307 8.0625 13.4023C8.14062 13.474 8.23503 13.5098 8.3457 13.5098C8.46289 13.5098 8.55729 13.474 8.62891 13.4023C8.70703 13.3242 8.74609 13.2266 8.74609 13.1094V10.2773ZM10.6211 10.2773H9.83008V13.1191C9.83008 13.2363 9.86914 13.3307 9.94727 13.4023C10.0254 13.474 10.1198 13.5098 10.2305 13.5098C10.3477 13.5098 10.4421 13.474 10.5137 13.4023C10.5853 13.3242 10.6211 13.2266 10.6211 13.1094V10.2773ZM12.5156 10.2773H11.7246V13.1191C11.7246 13.2363 11.7637 13.3307 11.8418 13.4023C11.9199 13.474 12.0111 13.5098 12.1152 13.5098C12.2389 13.5098 12.3366 13.474 12.4082 13.4023C12.4798 13.3242 12.5156 13.2266 12.5156 13.1094V10.2773ZM14.4004 10.2773H13.6094V14.8379C13.6094 14.9486 13.6484 15.043 13.7266 15.1211C13.8047 15.1927 13.8958 15.2285 14 15.2285C14.1237 15.2285 14.2214 15.1895 14.293 15.1113C14.3646 15.0332 14.4004 14.9388 14.4004 14.8281V10.2773ZM16.2949 10.2773H15.5039V13.1191C15.5039 13.2363 15.5397 13.3307 15.6113 13.4023C15.6895 13.474 15.7839 13.5098 15.8945 13.5098C16.0117 13.5098 16.1061 13.474 16.1777 13.4023C16.2559 13.3242 16.2949 13.2266 16.2949 13.1094V10.2773ZM18.1797 10.2773H17.3887V13.1191C17.3887 13.2363 17.4277 13.3307 17.5059 13.4023C17.584 13.474 17.6784 13.5098 17.7891 13.5098C17.9062 13.5098 18.0007 13.474 18.0723 13.4023C18.1439 13.3242 18.1797 13.2266 18.1797 13.1094V10.2773ZM20.0645 10.2773H19.2734V13.1191C19.2734 13.2363 19.3125 13.3307 19.3906 13.4023C19.4688 13.474 19.5599 13.5098 19.6641 13.5098C19.7878 13.5098 19.8854 13.474 19.957 13.4023C20.0286 13.3242 20.0645 13.2266 20.0645 13.1094V10.2773ZM21.959 10.2773H21.168V13.1191C21.168 13.2363 21.2038 13.3307 21.2754 13.4023C21.3535 13.474 21.4479 13.5098 21.5586 13.5098C21.6758 13.5098 21.7702 13.474 21.8418 13.4023C21.9199 13.3242 21.959 13.2266 21.959 13.1094V10.2773ZM23.834 10.2773H23.043V14.8379C23.043 14.9486 23.082 15.043 23.1602 15.1211C23.2383 15.1927 23.3327 15.2285 23.4434 15.2285C23.5605 15.2285 23.6549 15.1895 23.7266 15.1113C23.7982 15.0332 23.834 14.9388 23.834 14.8281V10.2773Z" fill="#1C1C1C"/>
</svg>
