<svg width="28" height="28" viewBox="0 0 28 28" fill="none" xmlns="http://www.w3.org/2000/svg">
<path d="M4.48828 21.0586L6.64648 12.3379C6.82227 11.6217 7.15755 11.0651 7.65234 10.668C8.15365 10.2708 8.76888 10.0723 9.49805 10.0723H18.502C19.2311 10.0723 19.8431 10.2708 20.3379 10.668C20.8392 11.0651 21.1777 11.6217 21.3535 12.3379L23.5117 21.0586C23.7656 22.0742 23.6875 22.862 23.2773 23.4219C22.8737 23.9818 22.1803 24.2617 21.1973 24.2617H6.80273C5.81966 24.2617 5.12305 23.9818 4.71289 23.4219C4.30924 22.862 4.23438 22.0742 4.48828 21.0586ZM13.209 11.2148V8.43164H14.7812V11.2148H13.209ZM14 9.19336C13.4922 9.19336 13.0267 9.06966 12.6035 8.82227C12.1803 8.56836 11.8418 8.23307 11.5879 7.81641C11.334 7.39323 11.207 6.92773 11.207 6.41992C11.207 5.91211 11.334 5.44661 11.5879 5.02344C11.8418 4.60026 12.1803 4.26172 12.6035 4.00781C13.0267 3.75391 13.4922 3.62695 14 3.62695C14.5013 3.62695 14.9635 3.75391 15.3867 4.00781C15.8099 4.26172 16.1484 4.60026 16.4023 5.02344C16.6628 5.44661 16.793 5.91211 16.793 6.41992C16.793 6.92773 16.666 7.39323 16.4121 7.81641C16.1582 8.23307 15.8197 8.56836 15.3965 8.82227C14.9733 9.06966 14.5078 9.19336 14 9.19336ZM14 7.83594C14.3906 7.83594 14.7259 7.69596 15.0059 7.41602C15.2858 7.13607 15.4258 6.80404 15.4258 6.41992C15.4258 6.03581 15.2826 5.70052 14.9961 5.41406C14.7161 5.1276 14.3841 4.98438 14 4.98438C13.6094 4.98438 13.2741 5.1276 12.9941 5.41406C12.7142 5.70052 12.5742 6.03581 12.5742 6.41992C12.5742 6.80404 12.7142 7.13607 12.9941 7.41602C13.2741 7.69596 13.6094 7.83594 14 7.83594Z" fill="#1C1C1C"/>
</svg>
