<svg width="42" height="42" viewBox="0 0 42 42" fill="none" xmlns="http://www.w3.org/2000/svg">
<path d="M21 37.665C18.7201 37.665 16.5729 37.2279 14.5586 36.3535C12.5553 35.4902 10.7845 34.2949 9.24609 32.7676C7.71875 31.2292 6.5179 29.4583 5.64355 27.4551C4.78027 25.4408 4.34863 23.2936 4.34863 21.0137C4.34863 18.7337 4.78027 16.5921 5.64355 14.5889C6.5179 12.5745 7.71875 10.8037 9.24609 9.27637C10.7734 7.73796 12.5387 6.53711 14.542 5.67383C16.5563 4.79948 18.7035 4.3623 20.9834 4.3623C23.2633 4.3623 25.4105 4.79948 27.4248 5.67383C29.4391 6.53711 31.21 7.73796 32.7373 9.27637C34.2646 10.8037 35.4655 12.5745 36.3398 14.5889C37.2142 16.5921 37.6514 18.7337 37.6514 21.0137C37.6514 23.2936 37.2142 25.4408 36.3398 27.4551C35.4655 29.4583 34.2646 31.2292 32.7373 32.7676C31.21 34.2949 29.4391 35.4902 27.4248 36.3535C25.4215 37.2279 23.2799 37.665 21 37.665ZM21 35.5234C23.0033 35.5234 24.8792 35.1471 26.6279 34.3945C28.3877 33.6419 29.9316 32.6016 31.2598 31.2734C32.599 29.9453 33.6393 28.4069 34.3809 26.6582C35.1335 24.8984 35.5098 23.0169 35.5098 21.0137C35.5098 19.0104 35.1335 17.1344 34.3809 15.3857C33.6283 13.626 32.5879 12.082 31.2598 10.7539C29.9316 9.41471 28.3877 8.37435 26.6279 7.63281C24.8792 6.88021 22.9977 6.50391 20.9834 6.50391C18.9801 6.50391 17.0986 6.88021 15.3389 7.63281C13.5902 8.37435 12.0518 9.41471 10.7236 10.7539C9.40658 12.082 8.37174 13.626 7.61914 15.3857C6.8776 17.1344 6.50684 19.0104 6.50684 21.0137C6.50684 23.0169 6.8776 24.8984 7.61914 26.6582C8.37174 28.4069 9.41211 29.9453 10.7402 31.2734C12.0684 32.6016 13.6068 33.6419 15.3555 34.3945C17.1042 35.1471 18.9857 35.5234 21 35.5234ZM20.9834 30.3438C20.8063 30.3438 20.6514 30.2884 20.5186 30.1777C20.3968 30.056 20.3359 29.8955 20.3359 29.6963V28.4346C19.1849 28.335 18.1943 27.9863 17.3643 27.3887C16.5342 26.7799 16.0085 25.9941 15.7871 25.0312C15.776 24.9538 15.7594 24.8818 15.7373 24.8154C15.7262 24.738 15.7207 24.6549 15.7207 24.5664C15.7207 24.334 15.7926 24.1458 15.9365 24.002C16.0915 23.847 16.2796 23.7695 16.501 23.7695C16.7002 23.7695 16.8662 23.8304 16.999 23.9521C17.1429 24.0628 17.248 24.2344 17.3145 24.4668C17.4251 25.1198 17.7406 25.6676 18.2607 26.1104C18.792 26.5531 19.4837 26.8242 20.3359 26.9238V21.5947L20.1533 21.5449C18.792 21.235 17.7682 20.7646 17.082 20.1338C16.3958 19.5029 16.0527 18.6895 16.0527 17.6934C16.0527 16.6087 16.4567 15.7122 17.2646 15.0039C18.0837 14.2845 19.1074 13.8639 20.3359 13.7422V12.5967C20.3359 12.165 20.5518 11.9492 20.9834 11.9492C21.1715 11.9492 21.3265 12.0101 21.4482 12.1318C21.5811 12.2425 21.6475 12.3975 21.6475 12.5967V13.7422C22.721 13.8418 23.6452 14.1849 24.4199 14.7715C25.2057 15.347 25.6982 16.0719 25.8975 16.9463C25.9196 17.0238 25.9362 17.1012 25.9473 17.1787C25.9694 17.2562 25.9805 17.3337 25.9805 17.4111C25.9805 17.6436 25.903 17.8372 25.748 17.9922C25.6042 18.1361 25.416 18.208 25.1836 18.208C24.7852 18.208 24.514 17.9811 24.3701 17.5273C24.2262 16.9186 23.9108 16.415 23.4238 16.0166C22.9479 15.6182 22.3558 15.3747 21.6475 15.2861V20.2998L21.9961 20.3662C23.4128 20.6429 24.4697 21.1133 25.167 21.7773C25.8753 22.4303 26.2295 23.2881 26.2295 24.3506C26.2295 25.5238 25.7923 26.4756 24.918 27.2061C24.0547 27.9255 22.9645 28.3405 21.6475 28.4512V29.6963C21.6475 29.8955 21.5811 30.056 21.4482 30.1777C21.3265 30.2884 21.1715 30.3438 20.9834 30.3438ZM20.3359 19.9512V15.2861C19.5501 15.3857 18.9082 15.6514 18.4102 16.083C17.9232 16.5146 17.6797 17.0293 17.6797 17.627C17.6797 18.1914 17.89 18.6562 18.3105 19.0215C18.7311 19.3867 19.373 19.6855 20.2363 19.918L20.3359 19.9512ZM21.6475 21.9268V26.9238C22.5882 26.8464 23.3132 26.5807 23.8223 26.127C24.3314 25.6621 24.5859 25.0977 24.5859 24.4336C24.5859 23.8249 24.3867 23.3268 23.9883 22.9395C23.5898 22.5521 22.9313 22.2422 22.0127 22.0098L21.6475 21.9268Z" fill="#1C1C1C"/>
</svg>
