<svg width="42" height="42" viewBox="0 0 42 42" fill="none" xmlns="http://www.w3.org/2000/svg">
<path d="M2.6875 31.25V24.25C2.6875 23.6771 2.84896 23.2396 3.17188 22.9375C3.49479 22.625 3.89583 22.4688 4.375 22.4688C4.625 22.4688 4.88021 22.526 5.14062 22.6406C5.40104 22.7448 5.66667 22.9167 5.9375 23.1562C6.35417 23.5208 6.78646 23.8125 7.23438 24.0312C7.68229 24.25 8.18229 24.3594 8.73438 24.3594C9.73438 24.3594 10.5729 24.0312 11.25 23.375C11.9271 22.7083 12.2656 21.8229 12.2656 20.7188C12.2656 19.6146 11.9271 18.7344 11.25 18.0781C10.5729 17.4115 9.73438 17.0781 8.73438 17.0781C8.18229 17.0781 7.68229 17.1875 7.23438 17.4062C6.78646 17.625 6.35417 17.9115 5.9375 18.2656C5.66667 18.5156 5.40104 18.6979 5.14062 18.8125C4.88021 18.9167 4.625 18.9688 4.375 18.9688C3.89583 18.9688 3.49479 18.8177 3.17188 18.5156C2.84896 18.2031 2.6875 17.7604 2.6875 17.1875V10.1406C2.6875 8.77604 3.0625 7.72917 3.8125 7C4.5625 6.26042 5.63021 5.89062 7.01562 5.89062H26.6406C28.026 5.89062 29.0885 6.26042 29.8281 7C30.5781 7.72917 30.9531 8.77604 30.9531 10.1406V16.3594C30.9531 16.5156 31.0052 16.6302 31.1094 16.7031C31.224 16.7656 31.3698 16.7344 31.5469 16.6094C31.8594 16.3906 32.1927 16.1771 32.5469 15.9688C32.9115 15.7604 33.3073 15.5938 33.7344 15.4688C34.1615 15.3438 34.6406 15.2812 35.1719 15.2812C36.1406 15.2812 37.026 15.5156 37.8281 15.9844C38.6406 16.4427 39.2865 17.0885 39.7656 17.9219C40.2448 18.7552 40.4844 19.724 40.4844 20.8281C40.4844 21.9427 40.2448 22.9167 39.7656 23.75C39.2865 24.5729 38.6406 25.2188 37.8281 25.6875C37.026 26.1562 36.1406 26.3906 35.1719 26.3906C34.6406 26.3906 34.1615 26.3281 33.7344 26.2031C33.3073 26.0677 32.9115 25.901 32.5469 25.7031C32.1927 25.4948 31.8594 25.2812 31.5469 25.0625C31.3698 24.9375 31.224 24.9062 31.1094 24.9688C31.0052 25.0312 30.9531 25.1406 30.9531 25.2969V31.25C30.9531 32.6146 30.5781 33.6615 29.8281 34.3906C29.0885 35.1302 28.026 35.5 26.6406 35.5H7.01562C5.63021 35.5 4.5625 35.1302 3.8125 34.3906C3.0625 33.6615 2.6875 32.6146 2.6875 31.25ZM4.60938 31.1719C4.60938 31.9323 4.82812 32.5208 5.26562 32.9375C5.70312 33.3646 6.30208 33.5781 7.0625 33.5781H26.6094C27.3594 33.5781 27.9479 33.3646 28.375 32.9375C28.8125 32.5208 29.0312 31.9323 29.0312 31.1719V24.4531C29.0312 23.8906 29.1927 23.4375 29.5156 23.0938C29.8385 22.75 30.2396 22.5781 30.7188 22.5781C30.9792 22.5781 31.2344 22.6354 31.4844 22.75C31.7448 22.8542 32.0104 23.0312 32.2812 23.2812C32.7083 23.6354 33.1458 23.9271 33.5938 24.1562C34.0417 24.375 34.5417 24.4844 35.0938 24.4844C36.0833 24.4844 36.9167 24.151 37.5938 23.4844C38.2708 22.8177 38.6094 21.9323 38.6094 20.8281C38.6094 19.7344 38.2708 18.8542 37.5938 18.1875C36.9167 17.5208 36.0833 17.1875 35.0938 17.1875C34.5417 17.1875 34.0417 17.2969 33.5938 17.5156C33.1458 17.7344 32.7083 18.026 32.2812 18.3906C32.0104 18.6302 31.7448 18.8073 31.4844 18.9219C31.2344 19.0365 30.9792 19.0938 30.7188 19.0938C30.2396 19.0938 29.8385 18.9219 29.5156 18.5781C29.1927 18.2344 29.0312 17.776 29.0312 17.2031V10.2188C29.0312 9.46875 28.8125 8.88021 28.375 8.45312C27.9479 8.02604 27.3594 7.8125 26.6094 7.8125H7.0625C6.30208 7.8125 5.70312 8.02604 5.26562 8.45312C4.82812 8.88021 4.60938 9.46875 4.60938 10.2188V16.1719C4.60938 16.4844 4.6875 16.6302 4.84375 16.6094C5 16.5885 5.16146 16.5208 5.32812 16.4062C5.64062 16.1979 5.96875 16 6.3125 15.8125C6.65625 15.6146 7.03125 15.4583 7.4375 15.3438C7.84375 15.2292 8.30729 15.1719 8.82812 15.1719C9.79688 15.1719 10.6823 15.4062 11.4844 15.875C12.2865 16.3333 12.9271 16.9792 13.4062 17.8125C13.8958 18.6458 14.1406 19.6146 14.1406 20.7188C14.1406 21.8229 13.8958 22.7917 13.4062 23.625C12.9271 24.4583 12.2865 25.1094 11.4844 25.5781C10.6823 26.0365 9.79688 26.2656 8.82812 26.2656C8.30729 26.2656 7.84375 26.2083 7.4375 26.0938C7.03125 25.9688 6.65625 25.8125 6.3125 25.625C5.96875 25.4271 5.64062 25.2292 5.32812 25.0312C5.16146 24.9167 5 24.849 4.84375 24.8281C4.6875 24.8073 4.60938 24.9531 4.60938 25.2656V31.1719Z" fill="#1C1C1C"/>
</svg>
