<svg width="42" height="42" viewBox="0 0 42 42" fill="none" xmlns="http://www.w3.org/2000/svg">
<path d="M6.125 15.3193C5.44987 15.3193 5.1123 14.9707 5.1123 14.2734V10.0068C5.1123 8.40202 5.52181 7.19564 6.34082 6.3877C7.15983 5.57975 8.37728 5.17578 9.99316 5.17578H14.2598C14.957 5.17578 15.3057 5.51335 15.3057 6.18848C15.3057 6.87467 14.957 7.21777 14.2598 7.21777H10.043C9.10221 7.21777 8.38281 7.46126 7.88477 7.94824C7.39779 8.43522 7.1543 9.16016 7.1543 10.123V14.2734C7.1543 14.9707 6.8112 15.3193 6.125 15.3193ZM35.8418 15.3193C35.1667 15.3193 34.8291 14.9707 34.8291 14.2734V10.123C34.8291 9.16016 34.5745 8.43522 34.0654 7.94824C33.5563 7.46126 32.8424 7.21777 31.9238 7.21777H27.7236C27.0264 7.21777 26.6777 6.87467 26.6777 6.18848C26.6777 5.51335 27.0264 5.17578 27.7236 5.17578H31.9736C33.6006 5.17578 34.8236 5.58529 35.6426 6.4043C36.4616 7.21224 36.8711 8.41309 36.8711 10.0068V14.2734C36.8711 14.9707 36.528 15.3193 35.8418 15.3193ZM9.99316 36.918C8.37728 36.918 7.15983 36.5085 6.34082 35.6895C5.52181 34.8815 5.1123 33.6751 5.1123 32.0703V27.8203C5.1123 27.123 5.44987 26.7744 6.125 26.7744C6.8112 26.7744 7.1543 27.123 7.1543 27.8203V31.9707C7.1543 32.9336 7.39779 33.6585 7.88477 34.1455C8.38281 34.6325 9.10221 34.876 10.043 34.876H14.2598C14.957 34.876 15.3057 35.2191 15.3057 35.9053C15.3057 36.5804 14.957 36.918 14.2598 36.918H9.99316ZM27.7236 36.918C27.0264 36.918 26.6777 36.5804 26.6777 35.9053C26.6777 35.2191 27.0264 34.876 27.7236 34.876H31.9238C32.8424 34.876 33.5563 34.6325 34.0654 34.1455C34.5745 33.6585 34.8291 32.9336 34.8291 31.9707V27.8203C34.8291 27.123 35.1667 26.7744 35.8418 26.7744C36.528 26.7744 36.8711 27.123 36.8711 27.8203V32.0703C36.8711 33.6751 36.4616 34.8815 35.6426 35.6895C34.8236 36.5085 33.6006 36.918 31.9736 36.918H27.7236ZM12.5 30.3604C12.1901 30.3604 11.9632 30.2718 11.8193 30.0947C11.6865 29.9176 11.6201 29.6852 11.6201 29.3975C11.6201 28.8994 11.8083 28.2464 12.1846 27.4385C12.5609 26.6195 13.1364 25.8005 13.9111 24.9814C14.6859 24.1624 15.6598 23.4762 16.833 22.9229C18.0062 22.3584 19.3896 22.0762 20.9834 22.0762C22.5882 22.0762 23.9772 22.3584 25.1504 22.9229C26.3346 23.4762 27.3086 24.1624 28.0723 24.9814C28.8359 25.8005 29.4059 26.6195 29.7822 27.4385C30.1585 28.2464 30.3467 28.8994 30.3467 29.3975C30.3467 29.6852 30.2747 29.9176 30.1309 30.0947C29.998 30.2718 29.7822 30.3604 29.4834 30.3604H12.5ZM20.9834 20.582C20.1201 20.582 19.3343 20.3607 18.626 19.918C17.9176 19.4642 17.3587 18.861 16.9492 18.1084C16.5397 17.3447 16.335 16.4759 16.335 15.502C16.335 14.5944 16.5397 13.7643 16.9492 13.0117C17.3587 12.248 17.9176 11.6393 18.626 11.1855C19.3343 10.7318 20.1201 10.5049 20.9834 10.5049C21.8467 10.5049 22.6325 10.7318 23.3408 11.1855C24.0492 11.6393 24.6136 12.248 25.0342 13.0117C25.4548 13.7643 25.665 14.5944 25.665 15.502C25.665 16.4759 25.4548 17.3447 25.0342 18.1084C24.6136 18.8721 24.0492 19.4753 23.3408 19.918C22.6325 20.3607 21.8467 20.582 20.9834 20.582Z" fill="#1C1C1C"/>
</svg>
